<?xml version="1.0" standalone="no"?>
<!DOCTYPE svg PUBLIC "-//W3C//DTD SVG 20010904//EN"
 "http://www.w3.org/TR/2001/REC-SVG-20010904/DTD/svg10.dtd">
<svg version="1.0" xmlns="http://www.w3.org/2000/svg"
 width="835.000000pt" height="835.000000pt" viewBox="0 0 835.000000 835.000000"
 preserveAspectRatio="xMidYMid meet">
<metadata>
Created by potrace 1.11, written by Peter Selinger 2001-2013
</metadata>
<g transform="translate(0.000000,835.000000) scale(0.100000,-0.100000)"
fill="#000000" stroke="none">
<path d="M2859 7126 c-2 -2 -29 -6 -59 -9 -109 -12 -259 -57 -380 -115 -317
-151 -538 -455 -604 -827 -27 -153 -25 -400 4 -530 25 -112 98 -279 163 -375
17 -25 33 -47 36 -50 4 -3 19 -23 35 -45 49 -67 196 -208 289 -279 49 -37 153
-109 233 -161 558 -365 874 -644 978 -865 64 -137 70 -320 13 -455 -86 -208
-340 -370 -631 -403 -34 -4 -124 -6 -201 -6 -286 2 -616 101 -844 252 -48 32
-141 120 -145 136 0 4 44 8 99 9 88 2 108 6 166 34 109 51 172 130 203 257 54
214 -28 410 -209 496 -71 34 -106 42 -195 45 -117 3 -217 -33 -298 -109 -182
-171 -193 -522 -24 -756 44 -60 166 -175 238 -222 144 -96 341 -181 537 -233
105 -28 332 -71 437 -82 83 -10 298 -9 370 1 286 39 538 157 723 340 186 185
290 405 324 686 15 123 7 410 -13 441 -3 5 -7 18 -10 29 -10 45 -14 58 -39
120 -83 201 -259 403 -540 619 -169 131 -210 160 -485 345 -601 404 -774 639
-726 981 52 366 326 578 737 569 122 -2 200 -12 319 -40 36 -9 70 -17 75 -18
93 -20 325 -137 383 -193 7 -7 21 -18 30 -25 21 -15 102 -111 102 -121 0 -3
-29 -4 -63 -3 -179 10 -328 -74 -399 -224 -102 -215 -25 -456 176 -555 182
-90 375 -65 509 64 52 49 83 102 113 191 26 77 26 259 0 355 -51 188 -172 347
-357 471 -192 128 -372 192 -699 249 -40 7 -365 17 -371 11z"/>
<path d="M6325 5988 c-240 -61 -721 -179 -742 -184 -19 -4 -188 -45 -1023
-250 -146 -36 -272 -67 -280 -69 -102 -22 -487 -120 -491 -124 -4 -3 0 -34 8
-69 14 -59 16 -62 41 -57 15 2 107 18 204 35 98 17 184 33 192 36 20 8 38 -35
61 -146 2 -8 31 -127 65 -265 34 -137 63 -258 65 -267 2 -10 27 -111 55 -225
28 -115 81 -327 116 -473 36 -146 110 -447 165 -670 55 -223 107 -432 114
-465 8 -33 23 -98 35 -145 12 -47 23 -92 25 -100 2 -8 53 -215 113 -460 60
-245 113 -460 117 -477 8 -39 24 -32 -230 -110 -99 -31 -182 -57 -184 -59 -6
-5 21 -124 28 -129 4 -2 133 27 286 65 493 121 777 190 900 221 66 17 131 32
145 35 14 3 33 7 42 10 9 3 25 7 35 9 10 3 38 9 63 16 25 6 52 12 60 14 49 10
173 44 177 48 8 9 -21 119 -33 124 -6 2 -81 -9 -165 -26 -85 -16 -165 -32
-179 -34 -14 -3 -64 -13 -113 -22 -48 -10 -89 -16 -91 -14 -3 3 -126 493 -141
559 -2 8 -31 128 -65 265 -34 138 -64 261 -66 275 -3 14 -9 39 -15 56 -5 17
-11 40 -13 50 -2 10 -12 51 -21 89 -9 39 -18 77 -20 85 -2 8 -26 104 -53 213
-34 136 -46 200 -39 202 11 4 184 49 232 60 80 20 237 25 304 11 103 -21 208
-108 271 -223 36 -67 93 -215 111 -288 6 -27 13 -51 14 -53 2 -2 37 5 79 14
l77 18 -5 31 c-3 16 -46 197 -97 400 -50 204 -92 377 -94 385 -2 8 -11 44 -20
80 -9 36 -19 74 -21 85 -8 45 -132 537 -136 541 -3 2 -39 -4 -81 -13 -67 -16
-76 -20 -72 -38 77 -341 62 -495 -60 -619 -46 -47 -145 -116 -165 -116 -6 0
-24 -7 -40 -15 -35 -18 -259 -84 -311 -91 l-37 -5 -67 273 c-36 150 -98 399
-136 553 -39 154 -73 291 -75 304 -3 13 -36 151 -74 306 -39 155 -70 288 -70
297 0 29 393 150 602 186 85 14 319 7 383 -12 110 -33 194 -85 285 -176 128
-127 212 -264 296 -485 51 -132 52 -135 66 -131 7 2 43 11 79 21 l67 17 -18
66 c-10 37 -28 103 -40 147 -11 44 -41 153 -66 243 -25 89 -47 171 -49 181 -2
10 -13 51 -25 92 -12 41 -23 79 -24 84 -10 60 -92 335 -100 334 -6 0 -65 -14
-131 -31z"/>
</g>
</svg>
